# xmcd CD database file
#
# Track frame offsets:
#	150
#	1086
#	13448
#	37214
#	40358
#	61756
#	82913
#	104340
#	128888
#	161471
#	194022
#	218739
#	238871
#	278035
#	300495
#	311409
#	316933
#
# Disc length: 4448 seconds
#
# Revision: 0
# Processed by: cddbd v1.5.1PL2 Copyright (c) Steve Scherf et al.
# Submitted via: CDex 1.51
#
DISCID=e3115e11
DTITLE=Vibén Oödle - Attack of the Vibén (Revenge of the Oödle)
DYEAR=2005
DGENRE=Jazz
TTITLE0=Intro
TTITLE1=Nu Dlay
TTITLE2=Groove, Daddy-o
TTITLE3=Bass Change Interlude
TTITLE4=Autumn in Ganymede
TTITLE5=Pipes Alive
TTITLE6=Robin Hood
TTITLE7=Holland
TTITLE8=Narc
TTITLE9=Penguin
TTITLE10=James Bond
TTITLE11=What Mirage
TTITLE12=Überfiction
TTITLE13=Fallin' of the Moore
TTITLE14=Pipes and Kicking
TTITLE15=Holland (Reprise)
TTITLE16=Autumn in Ganymede (Alternate Take)
EXTD=YEAR: 2005
EXTT0=
EXTT1=
EXTT2=
EXTT3=
EXTT4=
EXTT5=
EXTT6=
EXTT7=
EXTT8=
EXTT9=
EXTT10=
EXTT11=
EXTT12=
EXTT13=
EXTT14=
EXTT15=
EXTT16=
PLAYORDER=
